# xmcd
#
# Track frame offsets: 
#        150
#        10686
#        26304
#        46960
#        67284
#        82557
#        97595
#        119339
#        133855
#        152041
#        171501
#        221985
#        249817
#        269531
#        291176
#        315760
#
# Disc length: 4603 seconds
#
# Revision: 1
# Processed by: cddbd v1.5.1PL0 Copyright (c) Steve Scherf et al.
# Submitted via: ExactAudioCopy v0.95a5
#
DISCID=d111f910
DTITLE=Los Lonely Boys - Live At Blue Cat Blues
DYEAR=2000
DGENRE=Country
TTITLE0=Scuttle Buttin'
TTITLE1=Friday Night
TTITLE2=I Don't Want To Lose Your Love (Early Recording)
TTITLE3=Heaven
TTITLE4=Friday Night
TTITLE5=Dime Mi Amour
TTITLE6=Baby You're Gonna See
TTITLE7=I Want You To Feel The Same Way I Do
TTITLE8=I'm The Man To Beat
TTITLE9=I Don't Want To Lose Your Love
TTITLE10=Cotton Fields And Cross Roads
TTITLE11=Señorita
TTITLE12=I'm Gone
TTITLE13=My Sweet Sweet Kiss
TTITLE14=Pride and Joy
TTITLE15=End Of A New Beginning
EXTD=Oct. 5, 2000 (1st 3 songs) and Nov. 30, 2000 - Blue Cat Blues Clu
EXTD=b, Dallas, TX.  Blue Cat Blues Records
EXTT0=
EXTT1=
EXTT2=
EXTT3=
EXTT4=
EXTT5=
EXTT6=
EXTT7=
EXTT8=
EXTT9=
EXTT10=
EXTT11=
EXTT12=
EXTT13=
EXTT14=
EXTT15=
PLAYORDER=
